Coordinates
version=1
nRows=13
nColumns=18
inDegrees=yes

Units are S.I. units (second, meters, Newtons, ...)
Angles are in degrees.

endheader
time	ground_thorax_rot_x	ground_thorax_rot_y	ground_thorax_rot_z	ground_thorax_tx	ground_thorax_ty	ground_thorax_tz	clav_prot	clav_elev	scapula_abduction	scapula_elevation	scapula_upward_rot	scapula_winging	plane_elv	shoulder_elv	axial_rot	elbow_flexion	pro_sup
      5.95000000	      1.46659259	     -2.69042790	     -8.63245110	     -0.00423131	      0.00403036	     -0.00078352	    -22.42589722	     -6.33411908	    -12.22511690	     -5.37006658	     12.17660002	      6.30114170	    -29.40355441	     13.77645002	     54.42933594	      0.00000000	     34.32000000
      5.96000000	      1.42453095	     -2.55876443	     -8.58285582	     -0.00423131	      0.00403036	     -0.00078352	    -22.55158048	     -6.30823722	    -12.43340743	     -5.36430778	     12.20188201	      6.29181395	    -32.03673872	     13.30626376	     59.95457017	      0.00000000	     34.32000000
      5.97000000	      1.37580565	     -2.45532305	     -8.65717481	     -0.00423131	      0.00403036	     -0.00078352	    -22.57995923	     -6.57795523	    -12.66133377	     -5.46329063	     11.78031046	      6.49672973	    -30.94860454	     14.00785622	     54.60307271	      0.00000000	     34.32000000
      5.98000000	      1.24476544	     -2.58906404	     -8.57505464	     -0.00423131	      0.00403036	     -0.00078352	    -22.32354386	     -6.72990261	    -12.22826951	     -5.54540549	     11.70497187	      6.55950893	    -33.00108476	     14.01342723	     56.17265622	      0.00000000	     34.32000000
      5.99000000	      1.33163397	     -2.53744043	     -8.66686113	     -0.00423131	      0.00403036	     -0.00078352	    -22.31070185	     -6.68773188	    -12.23309200	     -5.50370586	     11.67342816	      6.55004413	    -33.01804638	     14.00041059	     56.18751110	      0.00000000	     34.32000000
      6.00000000	      1.40668082	     -2.42752769	     -8.49245043	     -0.00423131	      0.00403036	     -0.00078352	    -22.41454817	     -6.38645769	    -12.42391067	     -5.30303815	     11.77158817	      6.41741015	    -34.69918981	     13.51501854	     59.03495654	      0.00000000	     34.32000000
      6.01000000	      1.44802592	     -2.48241201	     -8.57531866	     -0.00423131	      0.00403036	     -0.00078352	    -22.41043292	     -6.35145083	    -12.45393508	     -5.26173892	     11.71911440	      6.41615537	    -34.70161611	     13.42226574	     59.04181210	      0.00000000	     34.32000000
      6.02000000	      1.50672301	     -2.28145123	     -8.58761563	     -0.00423131	      0.00403036	     -0.00078352	    -22.55708908	     -6.32878414	    -12.83978615	     -5.19291489	     11.49247400	      6.46933504	    -34.06785957	     13.49768095	     57.26410732	      0.00000000	     34.32000000
      6.03000000	      1.20375723	     -2.24704018	     -8.56564654	     -0.00423131	      0.00403036	     -0.00078352	    -22.53654049	     -6.64965945	    -12.84568405	     -5.38661154	     11.29165805	      6.63802430	    -35.93330910	     13.43712060	     59.15448023	      0.00000000	     34.32000000
      6.04000000	      1.39553311	     -2.24042468	     -8.58576529	     -0.00423131	      0.00403036	     -0.00078352	    -22.49471752	     -6.63511429	    -12.84285797	     -5.34125736	     11.17337273	      6.65843857	    -35.10175994	     13.90939586	     56.17298924	      0.00000000	     34.32000000
      6.05000000	      1.27555476	     -2.23758274	     -8.59299612	     -0.00423131	      0.00403036	     -0.00078352	    -22.50136380	     -6.78671658	    -12.81762914	     -5.46093881	     11.17999730	      6.71578437	    -36.85426088	     13.75301892	     58.41681325	      0.00000000	     34.32000000
      6.06000000	      1.37069570	     -2.26008864	     -8.60804195	     -0.00423131	      0.00403036	     -0.00078352	    -22.50143395	     -6.77608984	    -12.83541854	     -5.44518375	     11.15199408	      6.71814426	    -36.84655582	     13.74729631	     58.43127661	      0.00000000	     34.32000000
      6.07000000	      1.40028007	     -2.16920080	     -8.51387240	     -0.00423131	      0.00403036	     -0.00078352	    -22.57496696	     -6.75730881	    -13.23791588	     -5.30448066	     10.66372195	      6.83019296	    -34.77265423	     14.23822851	     54.85695342	      0.00000000	     34.32000000
